<svg width="25" height="24" viewBox="0 0 25 24" fill="none" stroke='none' xmlns="http://www.w3.org/2000/svg">
<g clip-path="url(#clip0_31_610)">
<path d="M3.625 10C3.625 10.9193 3.80606 11.8295 4.15784 12.6788C4.50963 13.5281 5.02524 14.2997 5.67525 14.9497C6.32526 15.5998 7.09694 16.1154 7.94622 16.4672C8.79549 16.8189 9.70575 17 10.625 17C11.5443 17 12.4545 16.8189 13.3038 16.4672C14.1531 16.1154 14.9247 15.5998 15.5747 14.9497C16.2248 14.2997 16.7404 13.5281 17.0922 12.6788C17.4439 11.8295 17.625 10.9193 17.625 10C17.625 9.08075 17.4439 8.17049 17.0922 7.32122C16.7404 6.47194 16.2248 5.70026 15.5747 5.05025C14.9247 4.40024 14.1531 3.88463 13.3038 3.53284C12.4545 3.18106 11.5443 3 10.625 3C9.70575 3 8.79549 3.18106 7.94622 3.53284C7.09694 3.88463 6.32526 4.40024 5.67525 5.05025C5.02524 5.70026 4.50963 6.47194 4.15784 7.32122C3.80606 8.17049 3.625 9.08075 3.625 10Z" stroke='none' fill='none' stroke-width="1.5" stroke-linecap="round" stroke-linejoin="round"/>
<path d="M21.625 21L15.625 15" stroke='none' fill='none' stroke-width="1.5" stroke-linecap="round" stroke-linejoin="round"/>
</g>
<defs>
<clipPath id="clip0_31_610">
<rect width="24" height="24" fill="none" stroke='none' transform="translate(0.625)"/>
</clipPath>
</defs>
</svg>
