<svg width="343" height="235" viewBox="0 0 343 235" fill="none" stroke="none" xmlns="http://www.w3.org/2000/svg">
<g clip-path="url(#clip0_48_1396)">
<path d="M101.414 185.5L94.031 192.918C93.8353 193.112 93.68 193.343 93.5741 193.598C93.4681 193.853 93.4136 194.126 93.4136 194.402C93.4136 194.677 93.4681 194.95 93.5741 195.205C93.68 195.46 93.8353 195.691 94.031 195.885C94.4263 196.278 94.9613 196.499 95.519 196.499C96.0766 196.499 96.6116 196.278 97.007 195.885L104.414 188.5" stroke="none" stroke-width="1.5" stroke-linecap="round" stroke-linejoin="round"/>
<path d="M108.121 190.793L110.707 188.207C110.894 188.019 111 187.765 111 187.5C111 187.235 110.894 186.98 110.707 186.793L103.121 179.207C102.933 179.019 102.679 178.914 102.414 178.914C102.149 178.914 101.894 179.019 101.707 179.207L99.1209 181.793C98.9334 181.98 98.8281 182.235 98.8281 182.5C98.8281 182.765 98.9334 183.019 99.1209 183.207L106.707 190.793C106.894 190.98 107.149 191.086 107.414 191.086C107.679 191.086 107.933 190.98 108.121 190.793Z" stroke="none" stroke-width="1.5" stroke-linecap="round" stroke-linejoin="round"/>
</g>
<g clip-path="url(#clip1_48_1396)">
<path d="M238 190.5H238.01" stroke="none" stroke-width="1.5" stroke-linecap="round" stroke-linejoin="round"/>
<path d="M232 181.5L233.721 191.829C233.799 192.296 234.04 192.72 234.401 193.026C234.762 193.332 235.221 193.5 235.694 193.5H246.306C246.779 193.5 247.238 193.332 247.599 193.026C247.96 192.72 248.201 192.296 248.279 191.829L250 181.5" stroke="none" stroke-width="1.5" stroke-linecap="round" stroke-linejoin="round"/>
<path d="M241 190.5H241.01" stroke="none" stroke-width="1.5" stroke-linecap="round" stroke-linejoin="round"/>
<path d="M244 190.5H244.01" stroke="none" stroke-width="1.5" stroke-linecap="round" stroke-linejoin="round"/>
<path d="M244 187.5H244.01" stroke="none" stroke-width="1.5" stroke-linecap="round" stroke-linejoin="round"/>
<path d="M241 187.5H241.01" stroke="none" stroke-width="1.5" stroke-linecap="round" stroke-linejoin="round"/>
<path d="M238 187.5H238.01" stroke="none" stroke-width="1.5" stroke-linecap="round" stroke-linejoin="round"/>
<path d="M232.486 184.465C232.654 184.485 232.826 184.498 233 184.5C233.79 184.509 234.539 184.322 235 184C235.461 183.68 236.21 183.493 237 183.5C237.79 183.493 238.539 183.68 239 184C239.461 184.322 240.21 184.509 241 184.5C241.79 184.509 242.539 184.322 243 184C243.461 183.68 244.21 183.493 245 183.5C245.79 183.493 246.539 183.68 247 184C247.461 184.322 248.21 184.509 249 184.5C249.17 184.5 249.339 184.486 249.503 184.466" stroke="none" stroke-width="1.5" stroke-linecap="round" stroke-linejoin="round"/>
</g>
<g clip-path="url(#clip2_48_1396)">
<path d="M212 98.5V94.5C212 93.7089 212.235 92.9355 212.674 92.2777C213.114 91.6199 213.738 91.1072 214.469 90.8045C215.2 90.5017 216.004 90.4225 216.78 90.5769C217.556 90.7312 218.269 91.1122 218.828 91.6716C219.388 92.231 219.769 92.9437 219.923 93.7196C220.077 94.4956 219.998 95.2998 219.696 96.0307C219.393 96.7616 218.88 97.3864 218.222 97.8259C217.564 98.2654 216.791 98.5 216 98.5H212Z" stroke="none" stroke-width="1.5" stroke-linecap="round" stroke-linejoin="round"/>
<path d="M230 80.5C227.146 80.8904 224.45 82.0441 222.197 83.8394C219.944 85.6347 218.218 88.005 217.2 90.7" stroke="none" stroke-width="1.5" stroke-linecap="round" stroke-linejoin="round"/>
<path d="M230 80.5C229.61 83.3542 228.456 86.05 226.661 88.3029C224.865 90.5559 222.495 92.2823 219.8 93.3" stroke="none" stroke-width="1.5" stroke-linecap="round" stroke-linejoin="round"/>
<path d="M219.6 86.5C221.543 87.3969 223.103 88.9568 224 90.9" stroke="none" stroke-width="1.5" stroke-linecap="round" stroke-linejoin="round"/>
</g>
<g clip-path="url(#clip3_48_1396)">
<path d="M124 82.5V84.5" stroke="none" stroke-width="1.5" stroke-linecap="round" stroke-linejoin="round"/>
<path d="M124 88.5V90.5" stroke="none" stroke-width="1.5" stroke-linecap="round" stroke-linejoin="round"/>
<path d="M124 94.5V96.5" stroke="none" stroke-width="1.5" stroke-linecap="round" stroke-linejoin="round"/>
<path d="M114 82.5H128C128.53 82.5 129.039 82.7107 129.414 83.0858C129.789 83.4609 130 83.9696 130 84.5V87.5C129.47 87.5 128.961 87.7107 128.586 88.0858C128.211 88.4609 128 88.9696 128 89.5C128 90.0304 128.211 90.5391 128.586 90.9142C128.961 91.2893 129.47 91.5 130 91.5V94.5C130 95.0304 129.789 95.5391 129.414 95.9142C129.039 96.2893 128.53 96.5 128 96.5H114C113.47 96.5 112.961 96.2893 112.586 95.9142C112.211 95.5391 112 95.0304 112 94.5V91.5C112.53 91.5 113.039 91.2893 113.414 90.9142C113.789 90.5391 114 90.0304 114 89.5C114 88.9696 113.789 88.4609 113.414 88.0858C113.039 87.7107 112.53 87.5 112 87.5V84.5C112 83.9696 112.211 83.4609 112.586 83.0858C112.961 82.7107 113.47 82.5 114 82.5Z" stroke="none" stroke-width="1.5" stroke-linecap="round" stroke-linejoin="round"/>
</g>
<g clip-path="url(#clip4_48_1396)">
<path d="M54.42 135.558L49.058 140.921C48.8196 141.159 48.5242 141.333 48.1999 141.425C47.8756 141.517 47.5332 141.525 47.2051 141.447C46.8769 141.37 46.5741 141.21 46.3252 140.982C46.0763 140.755 45.8897 140.468 45.783 140.148L43.101 132.104C42.9849 131.756 42.968 131.382 43.0524 131.024C43.1368 130.667 43.3191 130.34 43.5789 130.08C43.8386 129.82 44.1656 129.638 44.5231 129.553C44.8806 129.469 45.2545 129.486 45.603 129.602L53.648 132.284C53.9676 132.391 54.2547 132.577 54.482 132.826C54.7092 133.075 54.8692 133.378 54.9466 133.706C55.024 134.034 55.0164 134.376 54.9244 134.7C54.8324 135.024 54.6582 135.32 54.42 135.558Z" stroke="none" stroke-width="1.5" stroke-linecap="round" stroke-linejoin="round"/>
<path d="M50 136.5L56.5 143" stroke="none" stroke-width="1.5" stroke-linecap="round" stroke-linejoin="round"/>
<path d="M59.347 143.075L60.427 144.154C60.7945 144.522 61.001 145.02 61.0009 145.54C61.0008 146.06 60.7942 146.559 60.4265 146.926C60.0587 147.294 59.56 147.5 59.0401 147.5C58.5202 147.5 58.0215 147.294 57.654 146.926L56.574 145.847C56.2064 145.479 55.9999 144.981 56 144.461C56.0001 143.941 56.2067 143.442 56.5745 143.074C56.9422 142.707 57.4409 142.5 57.9608 142.5C58.4808 142.501 58.9794 142.707 59.347 143.075Z" stroke="none" stroke-width="1.5" stroke-linecap="round" stroke-linejoin="round"/>
</g>
<g clip-path="url(#clip5_48_1396)">
<path d="M285 130.5H284C283.47 130.5 282.961 130.711 282.586 131.086C282.211 131.461 282 131.97 282 132.5V136C282 137.459 282.579 138.858 283.611 139.889C284.642 140.921 286.041 141.5 287.5 141.5C288.959 141.5 290.358 140.921 291.389 139.889C292.421 138.858 293 137.459 293 136V132.5C293 131.97 292.789 131.461 292.414 131.086C292.039 130.711 291.53 130.5 291 130.5H290" stroke="none" stroke-width="1.5" stroke-linecap="round" stroke-linejoin="round"/>
<path d="M287 141.5C287 142.288 287.155 143.068 287.457 143.796C287.758 144.524 288.2 145.185 288.757 145.743C289.315 146.3 289.976 146.742 290.704 147.043C291.432 147.345 292.212 147.5 293 147.5C293.788 147.5 294.568 147.345 295.296 147.043C296.024 146.742 296.685 146.3 297.243 145.743C297.8 145.185 298.242 144.524 298.543 143.796C298.845 143.068 299 142.288 299 141.5V138.5" stroke="none" stroke-width="1.5" stroke-linecap="round" stroke-linejoin="round"/>
<path d="M290 129.5V131.5" stroke="none" stroke-width="1.5" stroke-linecap="round" stroke-linejoin="round"/>
<path d="M285 129.5V131.5" stroke="none" stroke-width="1.5" stroke-linecap="round" stroke-linejoin="round"/>
<path d="M297 136.5C297 137.03 297.211 137.539 297.586 137.914C297.961 138.289 298.47 138.5 299 138.5C299.53 138.5 300.039 138.289 300.414 137.914C300.789 137.539 301 137.03 301 136.5C301 135.97 300.789 135.461 300.414 135.086C300.039 134.711 299.53 134.5 299 134.5C298.47 134.5 297.961 134.711 297.586 135.086C297.211 135.461 297 135.97 297 136.5Z" stroke="none" stroke-width="1.5" stroke-linecap="round" stroke-linejoin="round"/>
</g>
<g clip-path="url(#clip6_48_1396)">
<path d="M164 143.5C164 144.03 164.211 144.539 164.586 144.914C164.961 145.289 165.47 145.5 166 145.5C166.53 145.5 167.039 145.289 167.414 144.914C167.789 144.539 168 144.03 168 143.5C168 142.97 167.789 142.461 167.414 142.086C167.039 141.711 166.53 141.5 166 141.5C165.47 141.5 164.961 141.711 164.586 142.086C164.211 142.461 164 142.97 164 143.5Z" stroke="none" stroke-width="1.5" stroke-linecap="round" stroke-linejoin="round"/>
<path d="M174 143.5C174 144.03 174.211 144.539 174.586 144.914C174.961 145.289 175.47 145.5 176 145.5C176.53 145.5 177.039 145.289 177.414 144.914C177.789 144.539 178 144.03 178 143.5C178 142.97 177.789 142.461 177.414 142.086C177.039 141.711 176.53 141.5 176 141.5C175.47 141.5 174.961 141.711 174.586 142.086C174.211 142.461 174 142.97 174 143.5Z" stroke="none" stroke-width="1.5" stroke-linecap="round" stroke-linejoin="round"/>
<path d="M164 143.5H162V137.5M162 137.5L164 132.5H173L177 137.5M162 137.5H177M177 137.5H178C178.53 137.5 179.039 137.711 179.414 138.086C179.789 138.461 180 138.97 180 139.5V143.5H178M174 143.5H168M171 137.5V132.5" stroke="none" stroke-width="1.5" stroke-linecap="round" stroke-linejoin="round"/>
</g>
<defs>
<linearGradient id="paint0_linear_48_1396" x1="171.5" y1="0" x2="171.5" y2="235" gradientUnits="userSpaceOnUse">
<stop stop-color="white"/>
<stop offset="0.526042" stop-color="white" stop-opacity="0.557292"/>
<stop offset="1" stop-color="white" stop-opacity="0"/>
</linearGradient>
<clipPath id="clip0_48_1396">
<rect width="24" height="24" fill="white" transform="translate(90 175.5)"/>
</clipPath>
<clipPath id="clip1_48_1396">
<rect width="24" height="24" fill="white" transform="translate(229 175.5)"/>
</clipPath>
<clipPath id="clip2_48_1396">
<rect width="24" height="24" fill="white" transform="translate(209 77.5)"/>
</clipPath>
<clipPath id="clip3_48_1396">
<rect width="24" height="24" fill="white" transform="translate(109 77.5)"/>
</clipPath>
<clipPath id="clip4_48_1396">
<rect width="24" height="24" fill="white" transform="translate(40 126.5)"/>
</clipPath>
<clipPath id="clip5_48_1396">
<rect width="24" height="24" fill="white" transform="translate(279 126.5)"/>
</clipPath>
<clipPath id="clip6_48_1396">
<rect width="24" height="24" fill="white" transform="translate(159 126.5)"/>
</clipPath>
</defs>
</svg>
