<svg width="25" height="24" viewBox="0 0 25 24" fill="none" stroke='none' xmlns="http://www.w3.org/2000/svg">
<g clip-path="url(#clip0_48_1723)">
<path d="M10.45 4.317C10.876 2.561 13.374 2.561 13.8 4.317C13.8639 4.5808 13.9892 4.82578 14.1657 5.032C14.3422 5.23822 14.5649 5.39985 14.8157 5.50375C15.0664 5.60764 15.3382 5.65085 15.6088 5.62987C15.8794 5.60889 16.1412 5.5243 16.373 5.383C17.916 4.443 19.683 6.209 18.743 7.753C18.6019 7.98466 18.5174 8.24634 18.4965 8.51677C18.4756 8.78721 18.5188 9.05877 18.6225 9.30938C18.7263 9.55999 18.8877 9.78258 19.0937 9.95905C19.2997 10.1355 19.5444 10.2609 19.808 10.325C21.564 10.751 21.564 13.249 19.808 13.675C19.5442 13.7389 19.2992 13.8642 19.093 14.0407C18.8868 14.2172 18.7251 14.4399 18.6213 14.6907C18.5174 14.9414 18.4741 15.2132 18.4951 15.4838C18.5161 15.7544 18.6007 16.0162 18.742 16.248C19.682 17.791 17.916 19.558 16.372 18.618C16.1403 18.4769 15.8787 18.3924 15.6082 18.3715C15.3378 18.3506 15.0662 18.3938 14.8156 18.4975C14.565 18.6013 14.3424 18.7627 14.1659 18.9687C13.9895 19.1747 13.8641 19.4194 13.8 19.683C13.374 21.439 10.876 21.439 10.45 19.683C10.3861 19.4192 10.2608 19.1742 10.0843 18.968C9.9078 18.7618 9.68511 18.6001 9.43435 18.4963C9.18359 18.3924 8.91183 18.3491 8.64121 18.3701C8.37059 18.3911 8.10875 18.4757 7.877 18.617C6.334 19.557 4.567 17.791 5.507 16.247C5.6481 16.0153 5.73255 15.7537 5.75348 15.4832C5.77442 15.2128 5.73124 14.9412 5.62747 14.6906C5.5237 14.44 5.36226 14.2174 5.15627 14.0409C4.95029 13.8645 4.70556 13.7391 4.442 13.675C2.686 13.249 2.686 10.751 4.442 10.325C4.7058 10.2611 4.95078 10.1358 5.157 9.95929C5.36322 9.7828 5.52485 9.56011 5.62875 9.30935C5.73264 9.05859 5.77585 8.78683 5.75487 8.51621C5.73389 8.24559 5.6493 7.98375 5.508 7.752C4.568 6.209 6.334 4.442 7.878 5.382C8.878 5.99 10.174 5.452 10.45 4.317Z" fill="none" stroke='none' stroke-width="1.5" stroke-linecap="round" stroke-linejoin="round"/>
<path d="M9.125 12C9.125 12.7956 9.44107 13.5587 10.0037 14.1213C10.5663 14.6839 11.3294 15 12.125 15C12.9206 15 13.6837 14.6839 14.2463 14.1213C14.8089 13.5587 15.125 12.7956 15.125 12C15.125 11.2044 14.8089 10.4413 14.2463 9.87868C13.6837 9.31607 12.9206 9 12.125 9C11.3294 9 10.5663 9.31607 10.0037 9.87868C9.44107 10.4413 9.125 11.2044 9.125 12Z" stroke="none" fill="none" stroke-width="1.5" stroke-linecap="round" stroke-linejoin="round"/>
</g>
<defs>
<clipPath id="clip0_48_1723">
<rect width="24" height="24" fill="none" transform="translate(0.125)"/>
</clipPath>
</defs>
</svg>
