<svg width="25" height="24" viewBox="0 0 25 24" fill="none" stroke="none" xmlns="http://www.w3.org/2000/svg">
<g clip-path="url(#clip0_48_1451)">
<path d="M13.5 9C13.5 8.73478 13.6054 8.48043 13.7929 8.29289C13.9804 8.10536 14.2348 8 14.5 8H20.5C20.7652 8 21.0196 8.10536 21.2071 8.29289C21.3946 8.48043 21.5 8.73478 21.5 9V19C21.5 19.2652 21.3946 19.5196 21.2071 19.7071C21.0196 19.8946 20.7652 20 20.5 20H14.5C14.2348 20 13.9804 19.8946 13.7929 19.7071C13.6054 19.5196 13.5 19.2652 13.5 19V9Z"  stroke="none" stroke-width="1.5" stroke-linecap="round" stroke-linejoin="round"/>
<path d="M18.5 8V5C18.5 4.73478 18.3946 4.48043 18.2071 4.29289C18.0196 4.10536 17.7652 4 17.5 4H4.5C4.23478 4 3.98043 4.10536 3.79289 4.29289C3.60536 4.48043 3.5 4.73478 3.5 5V17C3.5 17.2652 3.60536 17.5196 3.79289 17.7071C3.98043 17.8946 4.23478 18 4.5 18H13.5" fill="none" stroke="none" stroke-width="1.5" stroke-linecap="round" stroke-linejoin="round"/>
<path d="M16.5 9H18.5" stroke="none" stroke-width="1.5" stroke-linecap="round" stroke-linejoin="round"/>
</g>
<defs>
<clipPath id="clip0_48_1451">
<rect width="24" height="24" fill="none" stroke="none" transform="translate(0.5)"/>
</clipPath>
</defs>
</svg>
